ffmpeg started on 2025-05-12 at 16:45:34
Report written to "D:\Convert\FFMetrics\reports\ssim_report-6.txt"
Log level: 32
Command line:
ffmpeg -hide_banner -nostdin -i "G:\\\xc0\xed\xe8\xec\xe5\\\xce\xed\xe3\xee\xe8\xed\xe3\xe8\\!_35_\xcb\xe5\xf2\xee_2024\\DreamCast\\\xcc\xee\xff \xef\xee\xe4\xf0\xf3\xe3\xe0-\xee\xeb\xe5\xed\xe8\xf5\xe0, \xcd\xee\xea\xee\xf2\xe0\xed\\[DC] Shikanoko Nokonoko Koshitantan - 09_Telegram_HEVC.mkv" -i "G:\\\xc0\xed\xe8\xec\xe5\\\xce\xed\xe3\xee\xe8\xed\xe3\xe8\\!_35_\xcb\xe5\xf2\xee_2024\\DreamCast\\\xcc\xee\xff \xef\xee\xe4\xf0\xf3\xe3\xe0-\xee\xeb\xe5\xed\xe8\xf5\xe0, \xcd\xee\xea\xee\xf2\xe0\xed\\[DC] Shikanoko Nokonoko Koshitantan - 09_Telegram.mp4" -lavfi "[0:v]settb=AVTB,setpts=PTS-STARTPTS,format=pix_fmts=yuv420p10,fps=24000/1001,scale=1920:1080:flags=bicubic[main];[1:v]settb=AVTB,setpts=PTS-STARTPTS,format=pix_fmts=yuv420p,fps=24000/1001,scale=1920:1080:flags=bicubic[ref];[main][ref]ssim=eof_action=endall:stats_file='D\\:/Convert/FFMetrics/logs/ssim_logfile-6.txt'" -f null -
Input #0, matroska,webm, from 'G:\Аниме\Онгоинги\!_35_Лето_2024\DreamCast\Моя подруга-олениха, Нокотан\[DC] Shikanoko Nokonoko Koshitantan - 09_Telegram_HEVC.mkv':
  Metadata:
    COMPATIBLE_BRANDS: isomiso2avc1mp41
    MAJOR_BRAND     : isom
    MINOR_VERSION   : 512
    ENCODER         : Lavf61.7.100
  Duration: 00:23:41.70, start: -0.021000, bitrate: 1862 kb/s
  Stream #0:0: Video: hevc (Main 10), yuv420p10le(tv, bt709, progressive), 1920x1080 [SAR 1:1 DAR 16:9], 23.98 fps, 23.98 tbr, 1k tbn (default)
      Metadata:
        HANDLER_NAME    : VideoHandler
        VENDOR_ID       : [0][0][0][0]
        ENCODER         : Lavc61.19.100 libx265
        BPS             : 1665067
        DURATION        : 00:23:41.586708333
        NUMBER_OF_FRAMES: 34084
        NUMBER_OF_BYTES : 295879611
        _STATISTICS_WRITING_APP: mkvpropedit v66.0.0 ('Josie') 64-bit
        _STATISTICS_WRITING_DATE_UTC: 2025-05-08 11:32:18
        _STATISTICS_TAGS: BPS DURATION NUMBER_OF_FRAMES NUMBER_OF_BYTES
  Stream #0:1: Audio: aac (LC), 48000 Hz, stereo, fltp (default)
      Metadata:
        HANDLER_NAME    : SoundHandler
        VENDOR_ID       : [0][0][0][0]
        ENCODER         : Lavc61.19.100 aac
        BPS             : 193686
        DURATION        : 00:23:41.696000000
        NUMBER_OF_FRAMES: 66643
        NUMBER_OF_BYTES : 34420354
        _STATISTICS_WRITING_APP: mkvpropedit v66.0.0 ('Josie') 64-bit
        _STATISTICS_WRITING_DATE_UTC: 2025-05-08 11:32:18
        _STATISTICS_TAGS: BPS DURATION NUMBER_OF_FRAMES NUMBER_OF_BYTES
Input #1, mov,mp4,m4a,3gp,3g2,mj2, from 'G:\Аниме\Онгоинги\!_35_Лето_2024\DreamCast\Моя подруга-олениха, Нокотан\[DC] Shikanoko Nokonoko Koshitantan - 09_Telegram.mp4':
  Metadata:
    major_brand     : isom
    minor_version   : 512
    compatible_brands: isomiso2avc1mp41
    encoder         : Lavf60.16.100
  Duration: 00:23:41.65, start: 0.000000, bitrate: 3886 kb/s
  Stream #1:0[0x1](und): Video: h264 (High) (avc1 / 0x31637661), yuv420p(tv, bt709, progressive), 1920x1080 [SAR 1:1 DAR 16:9], 3738 kb/s, 23.98 fps, 23.98 tbr, 24k tbn (default)
      Metadata:
        handler_name    : VideoHandler
        vendor_id       : [0][0][0][0]
        encoder         : Lavc60.31.102 h264_qsv
  Stream #1:1[0x2](und): Audio: aac (HE-AACv2) (mp4a / 0x6134706D), 48000 Hz, stereo, fltp, 144 kb/s (default)
      Metadata:
        handler_name    : SoundHandler
        vendor_id       : [0][0][0][0]
Stream mapping:
  Stream #0:0 (hevc) -> settb:default
  Stream #1:0 (h264) -> settb:default
  ssim:default -> Stream #0:0 (wrapped_avframe)
  Stream #0:1 -> #0:1 (aac (native) -> pcm_s16le (native))
Output #0, null, to 'pipe:':
  Metadata:
    COMPATIBLE_BRANDS: isomiso2avc1mp41
    MAJOR_BRAND     : isom
    MINOR_VERSION   : 512
    encoder         : Lavf61.7.100
  Stream #0:0: Video: wrapped_avframe, yuv420p10le(tv, bt709, progressive), 1920x1080 [SAR 1:1 DAR 16:9], q=2-31, 200 kb/s, 23.98 fps, 23.98 tbn
      Metadata:
        encoder         : Lavc61.19.100 wrapped_avframe
  Stream #0:1: Audio: pcm_s16le, 48000 Hz, stereo, s16, 1536 kb/s (default)
      Metadata:
        HANDLER_NAME    : SoundHandler
        VENDOR_ID       : [0][0][0][0]
        _STATISTICS_TAGS: BPS DURATION NUMBER_OF_FRAMES NUMBER_OF_BYTES
        BPS             : 193686
        DURATION        : 00:23:41.696000000
        NUMBER_OF_FRAMES: 66643
        NUMBER_OF_BYTES : 34420354
        _STATISTICS_WRITING_APP: mkvpropedit v66.0.0 ('Josie') 64-bit
        _STATISTICS_WRITING_DATE_UTC: 2025-05-08 11:32:18
        encoder         : Lavc61.19.100 pcm_s16le
frame=  166 fps=0.0 q=-0.0 size=N/A time=00:00:06.92 bitrate=N/A speed=13.7x    frame=  389 fps=378 q=-0.0 size=N/A time=00:00:16.22 bitrate=N/A speed=15.8x    frame=  608 fps=392 q=-0.0 size=N/A time=00:00:25.35 bitrate=N/A speed=16.4x    frame=  858 fps=417 q=-0.0 size=N/A time=00:00:35.78 bitrate=N/A speed=17.4x    frame= 1120 fps=434 q=-0.0 size=N/A time=00:00:46.71 bitrate=N/A speed=18.1x    frame= 1366 fps=443 q=-0.0 size=N/A time=00:00:56.97 bitrate=N/A speed=18.5x    frame= 1627 fps=450 q=-0.0 size=N/A time=00:01:07.85 bitrate=N/A speed=18.8x    frame= 1791 fps=435 q=-0.0 size=N/A time=00:01:14.69 bitrate=N/A speed=18.1x    frame= 1963 fps=424 q=-0.0 size=N/A time=00:01:21.87 bitrate=N/A speed=17.7x    frame= 2173 fps=422 q=-0.0 size=N/A time=00:01:30.63 bitrate=N/A speed=17.6x    frame= 2376 fps=420 q=-0.0 size=N/A time=00:01:39.09 bitrate=N/A speed=17.5x    frame= 2598 fps=420 q=-0.0 size=N/A time=00:01:48.35 bitrate=N/A speed=17.5x    frame= 2823 fps=422 q=-0.0 size=N/A time=00:01:57.74 bitrate=N/A speed=17.6x    frame= 3030 fps=420 q=-0.0 size=N/A time=00:02:06.37 bitrate=N/A speed=17.5x    frame= 3196 fps=413 q=-0.0 size=N/A time=00:02:13.29 bitrate=N/A speed=17.2x    frame= 3416 fps=415 q=-0.0 size=N/A time=00:02:22.47 bitrate=N/A speed=17.3x    frame= 3620 fps=413 q=-0.0 size=N/A time=00:02:30.98 bitrate=N/A speed=17.2x    frame= 3826 fps=413 q=-0.0 size=N/A time=00:02:39.57 bitrate=N/A speed=17.2x    frame= 4081 fps=417 q=-0.0 size=N/A time=00:02:50.21 bitrate=N/A speed=17.4x    frame= 4343 fps=421 q=-0.0 size=N/A time=00:03:01.13 bitrate=N/A speed=17.6x    frame= 4602 fps=425 q=-0.0 size=N/A time=00:03:11.94 bitrate=N/A speed=17.7x    frame= 4858 fps=428 q=-0.0 size=N/A time=00:03:22.61 bitrate=N/A speed=17.9x    frame= 5112 fps=431 q=-0.0 size=N/A time=00:03:33.21 bitrate=N/A speed=  18x    frame= 5360 fps=433 q=-0.0 size=N/A time=00:03:43.55 bitrate=N/A speed=18.1x    frame= 5562 fps=431 q=-0.0 size=N/A time=00:03:51.98 bitrate=N/A speed=  18x    frame= 5738 fps=428 q=-0.0 size=N/A time=00:03:59.32 bitrate=N/A speed=17.9x    frame= 5968 fps=429 q=-0.0 size=N/A time=00:04:08.91 bitrate=N/A speed=17.9x    frame= 6194 fps=429 q=-0.0 size=N/A time=00:04:18.34 bitrate=N/A speed=17.9x    frame= 6442 fps=431 q=-0.0 size=N/A time=00:04:28.68 bitrate=N/A speed=  18x    frame= 6691 fps=433 q=-0.0 size=N/A time=00:04:39.07 bitrate=N/A speed=18.1x    frame= 6920 fps=433 q=-0.0 size=N/A time=00:04:48.62 bitrate=N/A speed=18.1x    frame= 7158 fps=434 q=-0.0 size=N/A time=00:04:58.54 bitrate=N/A speed=18.1x    frame= 7393 fps=435 q=-0.0 size=N/A time=00:05:08.34 bitrate=N/A speed=18.1x    frame= 7662 fps=437 q=-0.0 size=N/A time=00:05:19.56 bitrate=N/A speed=18.2x    frame= 7909 fps=438 q=-0.0 size=N/A time=00:05:29.87 bitrate=N/A speed=18.3x    frame= 8150 fps=439 q=-0.0 size=N/A time=00:05:39.92 bitrate=N/A speed=18.3x    frame= 8397 fps=440 q=-0.0 size=N/A time=00:05:50.22 bitrate=N/A speed=18.4x    frame= 8652 fps=442 q=-0.0 size=N/A time=00:06:00.86 bitrate=N/A speed=18.4x    frame= 8879 fps=442 q=-0.0 size=N/A time=00:06:10.32 bitrate=N/A speed=18.4x    frame= 9121 fps=442 q=-0.0 size=N/A time=00:06:20.42 bitrate=N/A speed=18.5x    frame= 9380 fps=444 q=-0.0 size=N/A time=00:06:31.22 bitrate=N/A speed=18.5x    frame= 9637 fps=445 q=-0.0 size=N/A time=00:06:41.94 bitrate=N/A speed=18.6x    frame= 9901 fps=446 q=-0.0 size=N/A time=00:06:52.95 bitrate=N/A speed=18.6x    frame=10059 fps=444 q=-0.0 size=N/A time=00:06:59.54 bitrate=N/A speed=18.5x    frame=10242 fps=441 q=-0.0 size=N/A time=00:07:07.17 bitrate=N/A speed=18.4x    frame=10491 fps=442 q=-0.0 size=N/A time=00:07:17.56 bitrate=N/A speed=18.5x    frame=10715 fps=442 q=-0.0 size=N/A time=00:07:26.90 bitrate=N/A speed=18.4x    frame=10841 fps=438 q=-0.0 size=N/A time=00:07:32.16 bitrate=N/A speed=18.3x    frame=11002 fps=436 q=-0.0 size=N/A time=00:07:38.87 bitrate=N/A speed=18.2x    frame=11200 fps=435 q=-0.0 size=N/A time=00:07:47.13 bitrate=N/A speed=18.1x    frame=11351 fps=432 q=-0.0 size=N/A time=00:07:53.43 bitrate=N/A speed=  18x    frame=11513 fps=430 q=-0.0 size=N/A time=00:08:00.18 bitrate=N/A speed=17.9x    frame=11760 fps=430 q=-0.0 size=N/A time=00:08:10.49 bitrate=N/A speed=17.9x    frame=11989 fps=431 q=-0.0 size=N/A time=00:08:20.04 bitrate=N/A speed=  18x    frame=12192 fps=430 q=-0.0 size=N/A time=00:08:28.50 bitrate=N/A speed=17.9x    frame=12439 fps=431 q=-0.0 size=N/A time=00:08:38.80 bitrate=N/A speed=  18x    frame=12657 fps=431 q=-0.0 size=N/A time=00:08:47.90 bitrate=N/A speed=  18x    frame=12791 fps=428 q=-0.0 size=N/A time=00:08:53.49 bitrate=N/A speed=17.8x    frame=12969 fps=426 q=-0.0 size=N/A time=00:09:00.91 bitrate=N/A speed=17.8x    frame=13192 fps=426 q=-0.0 size=N/A time=00:09:10.21 bitrate=N/A speed=17.8x    frame=13470 fps=428 q=-0.0 size=N/A time=00:09:21.81 bitrate=N/A speed=17.8x    frame=13729 fps=429 q=-0.0 size=N/A time=00:09:32.61 bitrate=N/A speed=17.9x    frame=13905 fps=428 q=-0.0 size=N/A time=00:09:39.95 bitrate=N/A speed=17.8x    frame=14045 fps=425 q=-0.0 size=N/A time=00:09:45.79 bitrate=N/A speed=17.7x    frame=14239 fps=425 q=-0.0 size=N/A time=00:09:53.88 bitrate=N/A speed=17.7x    frame=14469 fps=425 q=-0.0 size=N/A time=00:10:03.47 bitrate=N/A speed=17.7x    frame=14715 fps=426 q=-0.0 size=N/A time=00:10:13.73 bitrate=N/A speed=17.8x    frame=14870 fps=424 q=-0.0 size=N/A time=00:10:20.20 bitrate=N/A speed=17.7x    frame=15112 fps=424 q=-0.0 size=N/A time=00:10:30.29 bitrate=N/A speed=17.7x    frame=15344 fps=425 q=-0.0 size=N/A time=00:10:39.97 bitrate=N/A speed=17.7x    frame=15538 fps=424 q=-0.0 size=N/A time=00:10:48.06 bitrate=N/A speed=17.7x    frame=15786 fps=425 q=-0.0 size=N/A time=00:10:58.40 bitrate=N/A speed=17.7x    frame=16013 fps=425 q=-0.0 size=N/A time=00:11:07.87 bitrate=N/A speed=17.7x    frame=16226 fps=425 q=-0.0 size=N/A time=00:11:16.75 bitrate=N/A speed=17.7x    frame=16450 fps=425 q=-0.0 size=N/A time=00:11:26.10 bitrate=N/A speed=17.7x    frame=16687 fps=426 q=-0.0 size=N/A time=00:11:35.98 bitrate=N/A speed=17.7x    frame=16903 fps=425 q=-0.0 size=N/A time=00:11:44.99 bitrate=N/A speed=17.7x    frame=17101 fps=425 q=-0.0 size=N/A time=00:11:53.25 bitrate=N/A speed=17.7x    frame=17319 fps=425 q=-0.0 size=N/A time=00:12:02.34 bitrate=N/A speed=17.7x    frame=17496 fps=424 q=-0.0 size=N/A time=00:12:09.72 bitrate=N/A speed=17.7x    frame=17725 fps=424 q=-0.0 size=N/A time=00:12:19.28 bitrate=N/A speed=17.7x    frame=17922 fps=424 q=-0.0 size=N/A time=00:12:27.49 bitrate=N/A speed=17.7x    frame=18121 fps=423 q=-0.0 size=N/A time=00:12:35.79 bitrate=N/A speed=17.6x    frame=18361 fps=424 q=-0.0 size=N/A time=00:12:45.80 bitrate=N/A speed=17.7x    frame=18551 fps=423 q=-0.0 size=N/A time=00:12:53.73 bitrate=N/A speed=17.6x    frame=18736 fps=422 q=-0.0 size=N/A time=00:13:01.44 bitrate=N/A speed=17.6x    frame=18959 fps=422 q=-0.0 size=N/A time=00:13:10.74 bitrate=N/A speed=17.6x    frame=19189 fps=423 q=-0.0 size=N/A time=00:13:20.34 bitrate=N/A speed=17.6x    frame=19456 fps=424 q=-0.0 size=N/A time=00:13:31.47 bitrate=N/A speed=17.7x    frame=19693 fps=424 q=-0.0 size=N/A time=00:13:41.36 bitrate=N/A speed=17.7x    frame=19922 fps=424 q=-0.0 size=N/A time=00:13:50.91 bitrate=N/A speed=17.7x    frame=20134 fps=424 q=-0.0 size=N/A time=00:13:59.75 bitrate=N/A speed=17.7x    frame=20361 fps=424 q=-0.0 size=N/A time=00:14:09.22 bitrate=N/A speed=17.7x    frame=20603 fps=425 q=-0.0 size=N/A time=00:14:19.31 bitrate=N/A speed=17.7x    frame=20828 fps=425 q=-0.0 size=N/A time=00:14:28.70 bitrate=N/A speed=17.7x    frame=21047 fps=425 q=-0.0 size=N/A time=00:14:37.83 bitrate=N/A speed=17.7x    frame=21259 fps=425 q=-0.0 size=N/A time=00:14:46.67 bitrate=N/A speed=17.7x    frame=21540 fps=426 q=-0.0 size=N/A time=00:14:58.39 bitrate=N/A speed=17.8x    frame=21809 fps=427 q=-0.0 size=N/A time=00:15:09.61 bitrate=N/A speed=17.8x    frame=22025 fps=427 q=-0.0 size=N/A time=00:15:18.62 bitrate=N/A speed=17.8x    frame=22157 fps=425 q=-0.0 size=N/A time=00:15:24.13 bitrate=N/A speed=17.7x    frame=22285 fps=424 q=-0.0 size=N/A time=00:15:29.47 bitrate=N/A speed=17.7x    frame=22517 fps=424 q=-0.0 size=N/A time=00:15:39.14 bitrate=N/A speed=17.7x    frame=22724 fps=423 q=-0.0 size=N/A time=00:15:47.78 bitrate=N/A speed=17.7x    frame=22947 fps=424 q=-0.0 size=N/A time=00:15:57.08 bitrate=N/A speed=17.7x    frame=23206 fps=424 q=-0.0 size=N/A time=00:16:07.88 bitrate=N/A speed=17.7x    frame=23463 fps=425 q=-0.0 size=N/A time=00:16:18.60 bitrate=N/A speed=17.7x    frame=23680 fps=425 q=-0.0 size=N/A time=00:16:27.65 bitrate=N/A speed=17.7x    frame=23910 fps=425 q=-0.0 size=N/A time=00:16:37.24 bitrate=N/A speed=17.7x    frame=24096 fps=425 q=-0.0 size=N/A time=00:16:45.00 bitrate=N/A speed=17.7x    frame=24347 fps=425 q=-0.0 size=N/A time=00:16:55.47 bitrate=N/A speed=17.7x    frame=24545 fps=425 q=-0.0 size=N/A time=00:17:03.73 bitrate=N/A speed=17.7x    frame=24727 fps=424 q=-0.0 size=N/A time=00:17:11.32 bitrate=N/A speed=17.7x    frame=24946 fps=424 q=-0.0 size=N/A time=00:17:20.45 bitrate=N/A speed=17.7x    frame=25161 fps=424 q=-0.0 size=N/A time=00:17:29.42 bitrate=N/A speed=17.7x    frame=25405 fps=424 q=-0.0 size=N/A time=00:17:39.60 bitrate=N/A speed=17.7x    frame=25603 fps=424 q=-0.0 size=N/A time=00:17:47.85 bitrate=N/A speed=17.7x    frame=25809 fps=424 q=-0.0 size=N/A time=00:17:56.45 bitrate=N/A speed=17.7x    frame=25988 fps=423 q=-0.0 size=N/A time=00:18:03.91 bitrate=N/A speed=17.7x    frame=26133 fps=422 q=-0.0 size=N/A time=00:18:09.96 bitrate=N/A speed=17.6x    frame=26383 fps=423 q=-0.0 size=N/A time=00:18:20.39 bitrate=N/A speed=17.6x    frame=26643 fps=423 q=-0.0 size=N/A time=00:18:31.23 bitrate=N/A speed=17.7x    frame=26905 fps=424 q=-0.0 size=N/A time=00:18:42.16 bitrate=N/A speed=17.7x    frame=27168 fps=425 q=-0.0 size=N/A time=00:18:53.13 bitrate=N/A speed=17.7x    frame=27415 fps=425 q=-0.0 size=N/A time=00:19:03.43 bitrate=N/A speed=17.7x    frame=27646 fps=425 q=-0.0 size=N/A time=00:19:13.06 bitrate=N/A speed=17.7x    frame=27905 fps=426 q=-0.0 size=N/A time=00:19:23.87 bitrate=N/A speed=17.8x    frame=28125 fps=426 q=-0.0 size=N/A time=00:19:33.04 bitrate=N/A speed=17.8x    frame=28347 fps=426 q=-0.0 size=N/A time=00:19:42.30 bitrate=N/A speed=17.8x    frame=28606 fps=426 q=-0.0 size=N/A time=00:19:53.10 bitrate=N/A speed=17.8x    frame=28849 fps=427 q=-0.0 size=N/A time=00:20:03.24 bitrate=N/A speed=17.8x    frame=29082 fps=427 q=-0.0 size=N/A time=00:20:12.96 bitrate=N/A speed=17.8x    frame=29357 fps=428 q=-0.0 size=N/A time=00:20:24.43 bitrate=N/A speed=17.8x    frame=29602 fps=428 q=-0.0 size=N/A time=00:20:34.65 bitrate=N/A speed=17.9x    frame=29819 fps=428 q=-0.0 size=N/A time=00:20:43.70 bitrate=N/A speed=17.8x    frame=30020 fps=428 q=-0.0 size=N/A time=00:20:52.08 bitrate=N/A speed=17.8x    frame=30272 fps=428 q=-0.0 size=N/A time=00:21:02.59 bitrate=N/A speed=17.9x    frame=30505 fps=428 q=-0.0 size=N/A time=00:21:12.31 bitrate=N/A speed=17.9x    frame=30760 fps=429 q=-0.0 size=N/A time=00:21:22.94 bitrate=N/A speed=17.9x    frame=31009 fps=429 q=-0.0 size=N/A time=00:21:33.33 bitrate=N/A speed=17.9x    frame=31275 fps=430 q=-0.0 size=N/A time=00:21:44.42 bitrate=N/A speed=17.9x    frame=31522 fps=430 q=-0.0 size=N/A time=00:21:54.73 bitrate=N/A speed=17.9x    frame=31744 fps=430 q=-0.0 size=N/A time=00:22:03.98 bitrate=N/A speed=17.9x    frame=31971 fps=430 q=-0.0 size=N/A time=00:22:13.45 bitrate=N/A speed=17.9x    frame=32123 fps=429 q=-0.0 size=N/A time=00:22:19.79 bitrate=N/A speed=17.9x    frame=32307 fps=429 q=-0.0 size=N/A time=00:22:27.47 bitrate=N/A speed=17.9x    frame=32490 fps=428 q=-0.0 size=N/A time=00:22:35.10 bitrate=N/A speed=17.9x    frame=32648 fps=427 q=-0.0 size=N/A time=00:22:41.69 bitrate=N/A speed=17.8x    frame=32816 fps=427 q=-0.0 size=N/A time=00:22:48.70 bitrate=N/A speed=17.8x    frame=32972 fps=426 q=-0.0 size=N/A time=00:22:55.20 bitrate=N/A speed=17.8x    frame=33146 fps=425 q=-0.0 size=N/A time=00:23:02.46 bitrate=N/A speed=17.7x    frame=33307 fps=425 q=-0.0 size=N/A time=00:23:09.17 bitrate=N/A speed=17.7x    frame=33458 fps=424 q=-0.0 size=N/A time=00:23:15.47 bitrate=N/A speed=17.7x    frame=33624 fps=423 q=-0.0 size=N/A time=00:23:22.40 bitrate=N/A speed=17.6x    frame=33766 fps=422 q=-0.0 size=N/A time=00:23:28.32 bitrate=N/A speed=17.6x    frame=33933 fps=421 q=-0.0 size=N/A time=00:23:35.28 bitrate=N/A speed=17.6x    [Parsed_ssim_10 @ 00000223a1c79440] SSIM Y:0.994504 (22.599887) U:0.993119 (21.623503) V:0.992688 (21.359892) All:0.993971 (22.197457)
[out#0/null @ 0000022394bbeec0] video:14645KiB audio:266572KiB subtitle:0KiB other streams:0KiB global headers:0KiB muxing overhead: unknown
frame=34084 fps=421 q=-0.0 Lsize=N/A time=00:23:41.58 bitrate=N/A speed=17.6x    
